<svg width="16" height="16" viewBox="0 0 16 16" fill="none" xmlns="http://www.w3.org/2000/svg">
<path d="M8 15.1668C4.04666 15.1668 0.833328 11.9535 0.833328 8.00016C0.833328 4.04683 4.04666 0.833496 8 0.833496C11.9533 0.833496 15.1667 4.04683 15.1667 8.00016C15.1667 11.9535 11.9533 15.1668 8 15.1668ZM8 1.8335C4.6 1.8335 1.83333 4.60016 1.83333 8.00016C1.83333 11.4002 4.6 14.1668 8 14.1668C11.4 14.1668 14.1667 11.4002 14.1667 8.00016C14.1667 4.60016 11.4 1.8335 8 1.8335Z" fill="#17222B"/>
<path d="M8 10.0065C7.87333 10.0065 7.74666 9.95979 7.64666 9.85979L5.29333 7.50645C5.1 7.31312 5.1 6.99312 5.29333 6.79979C5.48666 6.60645 5.80666 6.60645 6 6.79979L8 8.79978L10 6.79979C10.1933 6.60645 10.5133 6.60645 10.7067 6.79979C10.9 6.99312 10.9 7.31312 10.7067 7.50645L8.35333 9.85979C8.25333 9.95979 8.12666 10.0065 8 10.0065Z" fill="#17222B"/>
</svg>
