<svg width="24" height="25" viewBox="0 0 24 25" fill="none" xmlns="http://www.w3.org/2000/svg">
<path d="M9.56994 19.3201C9.37994 19.3201 9.18994 19.2501 9.03994 19.1001L2.96994 13.0301C2.67994 12.7401 2.67994 12.2601 2.96994 11.9701L9.03994 5.90012C9.32994 5.61012 9.80994 5.61012 10.0999 5.90012C10.3899 6.19012 10.3899 6.67012 10.0999 6.96012L4.55994 12.5001L10.0999 18.0401C10.3899 18.3301 10.3899 18.8101 10.0999 19.1001C9.95994 19.2501 9.75994 19.3201 9.56994 19.3201Z" fill="#666666"/>
<path d="M20.4999 13.25H3.66992C3.25992 13.25 2.91992 12.91 2.91992 12.5C2.91992 12.09 3.25992 11.75 3.66992 11.75H20.4999C20.9099 11.75 21.2499 12.09 21.2499 12.5C21.2499 12.91 20.9099 13.25 20.4999 13.25Z" fill="#666666"/>
</svg>
