<svg width="24" height="24" viewBox="0 0 24 24" fill="none" xmlns="http://www.w3.org/2000/svg">
<path d="M20.21 7.81994L12.51 12.2799C12.2 12.4599 11.81 12.4599 11.49 12.2799L3.79 7.81994C3.24 7.49994 3.1 6.74994 3.52 6.27994C3.81 5.94994 4.14 5.67994 4.49 5.48994L9.91 2.48994C11.07 1.83994 12.95 1.83994 14.11 2.48994L19.53 5.48994C19.88 5.67994 20.21 5.95994 20.5 6.27994C20.9 6.74994 20.76 7.49994 20.21 7.81994Z" fill="#81A8BD"/>
<path d="M11.43 14.14V20.96C11.43 21.72 10.66 22.22 9.98001 21.89C7.92001 20.88 4.45001 18.99 4.45001 18.99C3.23001 18.3 2.23001 16.56 2.23001 15.13V9.97C2.23001 9.18 3.06001 8.68 3.74001 9.07L10.93 13.24C11.23 13.43 11.43 13.77 11.43 14.14Z" fill="#81A8BD"/>
<path d="M12.57 14.14V20.96C12.57 21.72 13.34 22.22 14.02 21.89C16.08 20.88 19.55 18.99 19.55 18.99C20.77 18.3 21.77 16.56 21.77 15.13V9.97C21.77 9.18 20.94 8.68 20.26 9.07L13.07 13.24C12.77 13.43 12.57 13.77 12.57 14.14Z" fill="#81A8BD"/>
</svg>
