<svg width="76" height="76" viewBox="0 0 76 76" fill="none" xmlns="http://www.w3.org/2000/svg">
<rect width="76" height="76" fill="#1E1E1E"/>
<path d="M-3667 -7616C-3667 -7617.1 -3666.1 -7618 -3665 -7618H20722C20723.1 -7618 20724 -7617.1 20724 -7616V9866C20724 9867.11 20723.1 9868 20722 9868H-3665C-3666.1 9868 -3667 9867.11 -3667 9866V-7616Z" fill="#444444"/>
<path d="M-3665 -7618V-7617H20722V-7618V-7619H-3665V-7618ZM20724 -7616H20723V9866H20724H20725V-7616H20724ZM20722 9868V9867H-3665V9868V9869H20722V9868ZM-3667 9866H-3666V-7616H-3667H-3668V9866H-3667ZM-3665 9868V9867C-3665.55 9867 -3666 9866.55 -3666 9866H-3667H-3668C-3668 9867.66 -3666.66 9869 -3665 9869V9868ZM20724 9866H20723C20723 9866.55 20722.6 9867 20722 9867V9868V9869C20723.7 9869 20725 9867.66 20725 9866H20724ZM20722 -7618V-7617C20722.6 -7617 20723 -7616.55 20723 -7616H20724H20725C20725 -7617.66 20723.7 -7619 20722 -7619V-7618ZM-3665 -7618V-7619C-3666.66 -7619 -3668 -7617.66 -3668 -7616H-3667H-3666C-3666 -7616.55 -3665.55 -7617 -3665 -7617V-7618Z" fill="white" fill-opacity="0.1"/>
<g clip-path="url(#clip0_1500_1212)">
<path d="M-761 -204C-761 -210.627 -755.627 -216 -749 -216H667C673.627 -216 679 -210.627 679 -204V796C679 802.627 673.627 808 667 808H-749C-755.627 808 -761 802.627 -761 796V-204Z" fill="url(#paint0_linear_1500_1212)"/>
<g filter="url(#filter0_d_1500_1212)">
<path d="M-374.875 -20C-374.875 -26.6274 -369.502 -32 -362.875 -32H439.125C445.752 -32 451.125 -26.6274 451.125 -20V234C451.125 240.627 445.752 246 439.125 246H-362.875C-369.502 246 -374.875 240.627 -374.875 234V-20Z" fill="#E6F5FC"/>
<path d="M441.37 -31.2812C440.644 -31.4248 439.894 -31.5 439.125 -31.5H436.133C435.857 -31.5 435.633 -31.7239 435.633 -32H430.647L430.638 -31.8994C430.591 -31.6715 430.389 -31.5 430.147 -31.5H424.162C423.886 -31.5001 423.662 -31.7239 423.662 -32H418.677L418.667 -31.8994C418.62 -31.6715 418.418 -31.5 418.177 -31.5H412.192C411.916 -31.5 411.692 -31.7239 411.692 -32H406.707L406.697 -31.8994C406.651 -31.6715 406.449 -31.5 406.207 -31.5H400.222C399.946 -31.5002 399.722 -31.724 399.722 -32H394.737L394.727 -31.8994C394.68 -31.6716 394.479 -31.5002 394.237 -31.5H388.252C387.976 -31.5 387.752 -31.7239 387.752 -32H382.767L382.757 -31.8994C382.71 -31.6715 382.508 -31.5 382.267 -31.5H376.281C376.005 -31.5003 375.781 -31.724 375.781 -32H370.797L370.786 -31.8994C370.74 -31.6716 370.538 -31.5001 370.297 -31.5H364.312C364.035 -31.5 363.812 -31.7239 363.812 -32H358.826L358.816 -31.8994C358.77 -31.6715 358.568 -31.5 358.326 -31.5H352.342L352.24 -31.5098C352.013 -31.5565 351.842 -31.7585 351.842 -32H346.856L346.846 -31.8994C346.799 -31.6716 346.598 -31.5001 346.356 -31.5H340.371C340.095 -31.5001 339.871 -31.7239 339.871 -32H334.886L334.876 -31.8994C334.829 -31.6715 334.627 -31.5 334.386 -31.5H328.401L328.301 -31.5098C328.073 -31.5562 327.901 -31.7582 327.901 -32H322.916L322.906 -31.8994C322.86 -31.6714 322.658 -31.5 322.416 -31.5H316.431L316.33 -31.5098C316.102 -31.5564 315.931 -31.7584 315.931 -32H310.946L310.936 -31.8994C310.889 -31.6716 310.688 -31.5002 310.446 -31.5H304.461C304.185 -31.5 303.961 -31.7239 303.961 -32H298.976L298.966 -31.8994C298.919 -31.6715 298.717 -31.5 298.476 -31.5H292.49C292.214 -31.5002 291.99 -31.724 291.99 -32H287.006L286.995 -31.8994C286.949 -31.6716 286.747 -31.5001 286.506 -31.5H280.521L280.42 -31.5098C280.192 -31.5563 280.021 -31.7583 280.021 -32H275.035L275.025 -31.8994C274.979 -31.6715 274.777 -31.5 274.535 -31.5H268.551L268.449 -31.5098C268.222 -31.5565 268.051 -31.7585 268.051 -32H263.065L263.055 -31.8994C263.008 -31.6716 262.807 -31.5001 262.565 -31.5H256.58L256.479 -31.5098C256.252 -31.5563 256.08 -31.7583 256.08 -32H251.095L251.085 -31.8994C251.038 -31.6715 250.836 -31.5 250.595 -31.5H244.61C244.334 -31.5 244.11 -31.7239 244.11 -32H239.125L239.115 -31.8994C239.069 -31.6715 238.867 -31.5 238.625 -31.5H232.64C232.364 -31.5001 232.14 -31.7239 232.14 -32H227.155L227.145 -31.8994C227.098 -31.6716 226.897 -31.5002 226.655 -31.5H220.67C220.394 -31.5 220.17 -31.7239 220.17 -32H215.185L215.175 -31.8994C215.128 -31.6715 214.926 -31.5 214.685 -31.5H208.699C208.423 -31.5002 208.199 -31.724 208.199 -32H203.215L203.204 -31.8994C203.158 -31.6716 202.956 -31.5002 202.715 -31.5H196.729C196.453 -31.5 196.229 -31.7239 196.229 -32H191.244L191.234 -31.8994C191.188 -31.6715 190.986 -31.5 190.744 -31.5H184.759C184.483 -31.5003 184.259 -31.724 184.259 -32H179.274L179.264 -31.8994C179.217 -31.6716 179.016 -31.5001 178.774 -31.5H172.789C172.513 -31.5 172.289 -31.7239 172.289 -32H167.304L167.294 -31.8994C167.247 -31.6715 167.045 -31.5 166.804 -31.5H160.819C160.543 -31.5 160.319 -31.7239 160.319 -32H155.334L155.323 -31.8994C155.277 -31.6716 155.076 -31.5 154.834 -31.5H148.849C148.573 -31.5001 148.349 -31.7239 148.349 -32H143.363L143.354 -31.8994C143.307 -31.6715 143.105 -31.5 142.863 -31.5H136.879C136.603 -31.5 136.379 -31.7239 136.379 -32H131.394L131.384 -31.8994C131.337 -31.6714 131.135 -31.5 130.894 -31.5H124.908C124.632 -31.5002 124.408 -31.724 124.408 -32H119.424L119.413 -31.8994C119.367 -31.6716 119.165 -31.5002 118.924 -31.5H112.938C112.662 -31.5 112.438 -31.7239 112.438 -32H107.453L107.443 -31.8994C107.397 -31.6715 107.195 -31.5 106.953 -31.5H100.968C100.692 -31.5002 100.468 -31.724 100.468 -32H95.4834L95.4727 -31.8994C95.4261 -31.6716 95.2249 -31.5001 94.9834 -31.5H88.998C88.7219 -31.5 88.498 -31.7239 88.498 -32H83.5127L83.5029 -31.8994C83.4564 -31.6715 83.2544 -31.5 83.0127 -31.5H77.0283C76.7522 -31.5 76.5283 -31.7239 76.5283 -32H71.543L71.5322 -31.8994C71.4856 -31.6716 71.2846 -31.5001 71.043 -31.5H65.0576C64.7815 -31.5001 64.5576 -31.7239 64.5576 -32H59.5723L59.5625 -31.8994C59.5159 -31.6715 59.314 -31.5 59.0723 -31.5H53.0879C52.8117 -31.5 52.5879 -31.7239 52.5879 -32H47.6025L47.5928 -31.8994C47.5463 -31.6715 47.3442 -31.5 47.1025 -31.5H41.1172C40.8412 -31.5001 40.6172 -31.7239 40.6172 -32H35.6328L35.6221 -31.8994C35.5755 -31.6716 35.3743 -31.5002 35.1328 -31.5H29.1475C28.8713 -31.5 28.6475 -31.7239 28.6475 -32H23.6621L23.6523 -31.8994C23.6058 -31.6715 23.4038 -31.5 23.1621 -31.5H17.1768C16.9008 -31.5002 16.6768 -31.724 16.6768 -32H11.6924L11.6816 -31.8994C11.6351 -31.6716 11.4339 -31.5001 11.1924 -31.5H5.20703L5.10645 -31.5098C4.87844 -31.5563 4.70703 -31.7583 4.70703 -32H-0.27832L-0.288086 -31.8994C-0.334627 -31.6715 -0.536621 -31.5 -0.77832 -31.5H-6.76367C-7.03959 -31.5003 -7.26367 -31.724 -7.26367 -32H-12.248L-12.2588 -31.8994C-12.3054 -31.6716 -12.5065 -31.5001 -12.748 -31.5H-18.7334C-19.0095 -31.5 -19.2334 -31.7239 -19.2334 -32H-24.2188L-24.2285 -31.8994C-24.2751 -31.6715 -24.4771 -31.5 -24.7188 -31.5H-30.7031C-30.9793 -31.5 -31.2031 -31.7239 -31.2031 -32H-36.1885L-36.1992 -31.8994C-36.2458 -31.6716 -36.4469 -31.5001 -36.6885 -31.5H-42.6738C-42.9499 -31.5001 -43.1738 -31.7239 -43.1738 -32H-48.1592L-48.1689 -31.8994C-48.2155 -31.6715 -48.4175 -31.5 -48.6592 -31.5H-54.6436C-54.9197 -31.5 -55.1436 -31.7239 -55.1436 -32H-60.1289L-60.1387 -31.8994C-60.1852 -31.6715 -60.3872 -31.5 -60.6289 -31.5H-66.6143C-66.8903 -31.5002 -67.1143 -31.724 -67.1143 -32H-72.0986L-72.1094 -31.8994C-72.1559 -31.6716 -72.3571 -31.5002 -72.5986 -31.5H-78.584C-78.8601 -31.5 -79.084 -31.7239 -79.084 -32H-84.0693L-84.0791 -31.8994C-84.1256 -31.6715 -84.3276 -31.5 -84.5693 -31.5H-90.5547C-90.8306 -31.5003 -91.0547 -31.724 -91.0547 -32H-96.0391L-96.0498 -31.8994C-96.0964 -31.6716 -96.2975 -31.5001 -96.5391 -31.5H-102.524C-102.801 -31.5001 -103.024 -31.7239 -103.024 -32H-108.01L-108.02 -31.8994C-108.066 -31.6715 -108.268 -31.5 -108.51 -31.5H-114.494C-114.77 -31.5 -114.994 -31.7239 -114.994 -32H-119.979L-119.989 -31.8994C-120.036 -31.6715 -120.238 -31.5 -120.479 -31.5H-126.465C-126.741 -31.5002 -126.965 -31.724 -126.965 -32H-131.949L-131.96 -31.8994C-132.007 -31.6716 -132.208 -31.5001 -132.449 -31.5H-138.435C-138.711 -31.5 -138.935 -31.7239 -138.935 -32H-143.92L-143.93 -31.8994C-143.976 -31.6715 -144.178 -31.5 -144.42 -31.5H-150.404C-150.68 -31.5 -150.904 -31.7239 -150.904 -32H-155.89L-155.899 -31.8994C-155.946 -31.6715 -156.148 -31.5 -156.39 -31.5H-162.375C-162.651 -31.5001 -162.875 -31.7239 -162.875 -32H-167.859L-167.87 -31.8994C-167.917 -31.6716 -168.118 -31.5002 -168.359 -31.5H-174.345C-174.621 -31.5 -174.845 -31.7239 -174.845 -32H-179.83L-179.84 -31.8994C-179.886 -31.6715 -180.088 -31.5 -180.33 -31.5H-186.315C-186.591 -31.5003 -186.815 -31.724 -186.815 -32H-191.8L-191.811 -31.8994C-191.857 -31.6716 -192.058 -31.5001 -192.3 -31.5H-198.285C-198.561 -31.5001 -198.785 -31.7239 -198.785 -32H-203.771L-203.78 -31.8994C-203.827 -31.6715 -204.029 -31.5 -204.271 -31.5H-210.255C-210.531 -31.5 -210.755 -31.7239 -210.755 -32H-215.74L-215.75 -31.8994C-215.797 -31.6715 -215.999 -31.5 -216.24 -31.5H-222.226C-222.502 -31.5002 -222.726 -31.724 -222.726 -32H-227.71L-227.721 -31.8994C-227.767 -31.6716 -227.968 -31.5002 -228.21 -31.5H-234.195C-234.471 -31.5 -234.695 -31.7239 -234.695 -32H-239.681L-239.69 -31.8994C-239.737 -31.6715 -239.939 -31.5 -240.181 -31.5H-246.165C-246.441 -31.5 -246.665 -31.7239 -246.665 -32H-251.65L-251.66 -31.8994C-251.707 -31.6715 -251.909 -31.5 -252.15 -31.5H-258.136C-258.412 -31.5001 -258.636 -31.7239 -258.636 -32H-263.62L-263.631 -31.8994C-263.677 -31.6716 -263.879 -31.5002 -264.12 -31.5H-270.105C-270.382 -31.5 -270.605 -31.7239 -270.605 -32H-275.591L-275.601 -31.8994C-275.647 -31.6715 -275.849 -31.5 -276.091 -31.5H-282.075C-282.351 -31.5 -282.575 -31.7239 -282.575 -32H-287.561L-287.571 -31.8994C-287.618 -31.6716 -287.819 -31.5001 -288.061 -31.5H-294.046C-294.322 -31.5001 -294.546 -31.7239 -294.546 -32H-299.531L-299.541 -31.8994C-299.588 -31.6715 -299.79 -31.5 -300.031 -31.5H-306.016C-306.292 -31.5 -306.516 -31.7239 -306.516 -32H-311.501L-311.511 -31.8994C-311.557 -31.6715 -311.759 -31.5 -312.001 -31.5H-317.986C-318.262 -31.5002 -318.486 -31.724 -318.486 -32H-323.471L-323.481 -31.8994C-323.528 -31.6716 -323.729 -31.5001 -323.971 -31.5H-329.956C-330.232 -31.5 -330.456 -31.7239 -330.456 -32H-335.441L-335.451 -31.8994C-335.498 -31.6715 -335.7 -31.5 -335.941 -31.5H-341.926C-342.202 -31.5 -342.426 -31.7239 -342.426 -32H-347.411L-347.421 -31.8994C-347.467 -31.6715 -347.669 -31.5 -347.911 -31.5H-353.896C-354.173 -31.5001 -354.396 -31.7239 -354.396 -32H-359.381L-359.392 -31.8994C-359.438 -31.6716 -359.639 -31.5002 -359.881 -31.5H-362.875C-363.644 -31.5 -364.394 -31.4248 -365.12 -31.2812M441.37 -31.2812L441.466 -31.7715L441.467 -31.7705L441.37 -31.2812ZM441.37 -31.2812C441.637 -31.2286 441.893 -31.3987 441.952 -31.6621C443.175 -31.3666 444.326 -30.8863 445.371 -30.248C445.225 -30.0195 445.288 -29.7151 445.515 -29.5635C446.769 -28.7238 447.849 -27.6438 448.688 -26.3896C448.84 -26.1632 449.144 -26.1011 449.372 -26.2471C450.01 -25.2022 450.491 -24.0514 450.786 -22.8281C450.523 -22.7685 450.354 -22.5113 450.406 -22.2451M450.406 -22.2451L450.895 -22.3428L450.896 -22.3418L450.406 -22.2451ZM450.406 -22.2451C450.55 -21.5195 450.625 -20.7687 450.625 -20V-16.9766C450.625 -16.7004 450.849 -16.4766 451.125 -16.4766V-11.4287C450.849 -11.4287 450.625 -11.2048 450.625 -10.9287V-4.88086C450.625 -4.6048 450.849 -4.38086 451.125 -4.38086V0.666992C450.849 0.666992 450.625 0.89085 450.625 1.16699V7.21387C450.625 7.49001 450.849 7.71387 451.125 7.71387V12.7617C450.849 12.7617 450.625 12.9856 450.625 13.2617V19.3096C450.625 19.5857 450.849 19.8096 451.125 19.8096V24.8574C450.849 24.8574 450.625 25.0813 450.625 25.3574V31.4043C450.625 31.6804 450.849 31.9043 451.125 31.9043V36.9521C450.849 36.9521 450.625 37.1761 450.625 37.4521V43.5C450.625 43.7761 450.849 44 451.125 44V49.0479C450.849 49.0479 450.625 49.2717 450.625 49.5479V55.5947C450.625 55.8709 450.849 56.0947 451.125 56.0947V61.1426C450.849 61.1426 450.625 61.3665 450.625 61.6426V67.6904C450.625 67.9666 450.849 68.1904 451.125 68.1904V73.2383C450.849 73.2383 450.625 73.4621 450.625 73.7383V79.7861C450.625 80.0621 450.849 80.2861 451.125 80.2861V85.333C450.849 85.333 450.625 85.557 450.625 85.833V91.8809C450.625 92.157 450.849 92.3809 451.125 92.3809V97.4287C450.849 97.4287 450.625 97.6526 450.625 97.9287V103.977C450.625 104.253 450.849 104.477 451.125 104.477V109.523C450.849 109.523 450.625 109.747 450.625 110.023V116.071C450.625 116.347 450.849 116.571 451.125 116.571V121.619C450.849 121.619 450.625 121.843 450.625 122.119V128.167C450.625 128.443 450.849 128.667 451.125 128.667V133.714C450.849 133.714 450.625 133.938 450.625 134.214V140.262C450.625 140.538 450.849 140.762 451.125 140.762V145.81C450.849 145.81 450.625 146.033 450.625 146.31V152.357C450.625 152.633 450.849 152.857 451.125 152.857V157.904C450.849 157.904 450.625 158.128 450.625 158.404V164.452C450.625 164.728 450.849 164.952 451.125 164.952V170C450.849 170 450.625 170.224 450.625 170.5V176.548C450.625 176.824 450.849 177.048 451.125 177.048V182.096C450.849 182.096 450.625 182.32 450.625 182.596V188.643C450.625 188.919 450.849 189.143 451.125 189.143V194.19C450.849 194.19 450.625 194.414 450.625 194.69V200.738C450.625 201.014 450.849 201.238 451.125 201.238V206.286C450.849 206.286 450.625 206.51 450.625 206.786V212.833C450.625 213.109 450.849 213.333 451.125 213.333V218.381C450.849 218.381 450.625 218.605 450.625 218.881V224.929C450.625 225.205 450.849 225.429 451.125 225.429V230.477C450.849 230.477 450.625 230.7 450.625 230.977V234C450.625 234.769 450.55 235.519 450.406 236.245M450.406 236.245L450.896 236.341L450.895 236.342L450.406 236.245ZM450.406 236.245C450.354 236.511 450.523 236.767 450.786 236.827C450.491 238.051 450.01 239.201 449.372 240.246C449.173 240.119 448.916 240.151 448.753 240.312L448.688 240.39C447.954 241.487 447.035 242.451 445.977 243.237L445.515 243.563C445.288 243.715 445.225 244.019 445.371 244.247C444.326 244.885 443.176 245.366 441.952 245.661C441.9 245.432 441.699 245.273 441.471 245.271L441.37 245.281C440.644 245.425 439.894 245.5 439.125 245.5H436.131C435.855 245.5 435.631 245.724 435.631 246H430.646C430.646 245.724 430.423 245.5 430.146 245.5H424.161C423.885 245.5 423.661 245.724 423.661 246H418.676C418.676 245.724 418.452 245.5 418.176 245.5H412.191C411.915 245.5 411.691 245.724 411.691 246H406.706C406.706 245.724 406.482 245.5 406.206 245.5H400.221C399.945 245.5 399.721 245.724 399.721 246H394.736C394.736 245.724 394.512 245.5 394.236 245.5H388.251C387.975 245.5 387.751 245.724 387.751 246H382.766C382.766 245.724 382.542 245.5 382.266 245.5H376.281C376.005 245.5 375.781 245.724 375.781 246H370.796C370.796 245.724 370.572 245.5 370.296 245.5H364.311C364.034 245.5 363.811 245.724 363.811 246H358.825C358.825 245.724 358.601 245.5 358.325 245.5H352.341C352.065 245.5 351.841 245.724 351.841 246H346.855C346.855 245.724 346.632 245.5 346.355 245.5H340.37C340.094 245.5 339.87 245.724 339.87 246H334.886C334.886 245.724 334.662 245.5 334.386 245.5H328.4C328.124 245.5 327.9 245.724 327.9 246H322.915C322.915 245.724 322.691 245.5 322.415 245.5H316.431C316.155 245.5 315.931 245.724 315.931 246H310.945C310.945 245.724 310.721 245.5 310.445 245.5H304.46C304.184 245.5 303.96 245.724 303.96 246H298.976C298.976 245.724 298.752 245.5 298.476 245.5H292.49C292.214 245.5 291.99 245.724 291.99 246H287.005C287.005 245.724 286.781 245.5 286.505 245.5H280.521C280.244 245.5 280.021 245.724 280.021 246H275.035C275.035 245.724 274.811 245.5 274.535 245.5H268.55C268.274 245.5 268.05 245.724 268.05 246H263.065C263.065 245.724 262.841 245.5 262.565 245.5H256.58C256.304 245.5 256.08 245.724 256.08 246H251.095C251.095 245.724 250.871 245.5 250.595 245.5H244.609C244.333 245.5 244.109 245.724 244.109 246H239.125C239.125 245.724 238.901 245.5 238.625 245.5H232.64C232.364 245.5 232.14 245.724 232.14 246H227.154C227.154 245.724 226.93 245.5 226.654 245.5H220.67C220.394 245.5 220.17 245.724 220.17 246H215.185C215.185 245.724 214.961 245.5 214.685 245.5H208.699C208.423 245.5 208.199 245.724 208.199 246H203.215C203.215 245.724 202.991 245.5 202.715 245.5H196.729C196.453 245.5 196.229 245.724 196.229 246H191.244C191.244 245.724 191.02 245.5 190.744 245.5H184.76C184.484 245.5 184.26 245.724 184.26 246H179.274C179.274 245.724 179.051 245.5 178.774 245.5H172.789C172.513 245.5 172.289 245.724 172.289 246H167.305C167.305 245.724 167.081 245.5 166.805 245.5H160.819C160.543 245.5 160.319 245.724 160.319 246H155.334C155.334 245.724 155.11 245.5 154.834 245.5H148.849C148.573 245.5 148.349 245.724 148.349 246H143.364C143.364 245.724 143.14 245.5 142.864 245.5H136.879C136.603 245.5 136.379 245.724 136.379 246H131.394C131.394 245.724 131.17 245.5 130.894 245.5H124.909C124.633 245.5 124.409 245.724 124.409 246H119.424C119.424 245.724 119.2 245.5 118.924 245.5H112.938C112.662 245.5 112.438 245.724 112.438 246H107.453C107.453 245.724 107.229 245.5 106.953 245.5H100.969C100.693 245.5 100.469 245.724 100.469 246H95.4834C95.4834 245.724 95.2595 245.5 94.9834 245.5H88.998C88.722 245.5 88.498 245.724 88.498 246H83.5137C83.5137 245.724 83.2896 245.5 83.0137 245.5H77.0283C76.7522 245.5 76.5283 245.724 76.5283 246H71.543C71.543 245.724 71.3191 245.5 71.043 245.5H65.0576C64.7816 245.5 64.5576 245.724 64.5576 246H59.5732C59.5732 245.724 59.3492 245.5 59.0732 245.5H53.0879C52.8117 245.5 52.5879 245.724 52.5879 246H47.6025C47.6025 245.724 47.3787 245.5 47.1025 245.5H41.1172C40.8413 245.5 40.6172 245.724 40.6172 246H35.6328C35.6328 245.724 35.4088 245.5 35.1328 245.5H29.1475C28.8713 245.5 28.6475 245.724 28.6475 246H23.6621C23.6621 245.724 23.4383 245.5 23.1621 245.5H17.1777C16.9016 245.5 16.6777 245.724 16.6777 246H11.6924C11.6924 245.724 11.4685 245.5 11.1924 245.5H5.20703C4.93096 245.5 4.70703 245.724 4.70703 246H-0.27832C-0.27832 245.724 -0.502178 245.5 -0.77832 245.5H-6.7627C-7.03884 245.5 -7.2627 245.724 -7.2627 246H-12.248C-12.248 245.724 -12.4719 245.5 -12.748 245.5H-18.7334C-19.0094 245.5 -19.2334 245.724 -19.2334 246H-24.2178C-24.2178 245.724 -24.4418 245.5 -24.7178 245.5H-30.7031C-30.9793 245.5 -31.2031 245.724 -31.2031 246H-36.1885C-36.1885 245.724 -36.4123 245.5 -36.6885 245.5H-42.6738C-42.9498 245.5 -43.1738 245.724 -43.1738 246H-48.1582C-48.1582 245.724 -48.3822 245.5 -48.6582 245.5H-54.6436C-54.9197 245.5 -55.1436 245.724 -55.1436 246H-60.1289C-60.1289 245.724 -60.3528 245.5 -60.6289 245.5H-66.6133C-66.8894 245.5 -67.1133 245.724 -67.1133 246H-72.0986C-72.0986 245.724 -72.3226 245.5 -72.5986 245.5H-78.584C-78.8601 245.5 -79.084 245.724 -79.084 246H-84.0693C-84.0693 245.724 -84.2932 245.5 -84.5693 245.5H-90.5537C-90.8299 245.5 -91.0537 245.724 -91.0537 246H-96.0391C-96.0391 245.724 -96.2629 245.5 -96.5391 245.5H-102.524C-102.8 245.5 -103.024 245.724 -103.024 246H-108.009C-108.009 245.724 -108.233 245.5 -108.509 245.5H-114.494C-114.77 245.5 -114.994 245.724 -114.994 246H-119.979C-119.979 245.724 -120.203 245.5 -120.479 245.5H-126.465C-126.741 245.5 -126.965 245.724 -126.965 246H-131.949C-131.949 245.724 -132.173 245.5 -132.449 245.5H-138.435C-138.711 245.5 -138.935 245.724 -138.935 246H-143.92C-143.92 245.724 -144.144 245.5 -144.42 245.5H-150.404C-150.68 245.5 -150.904 245.724 -150.904 246H-155.89C-155.89 245.724 -156.114 245.5 -156.39 245.5H-162.375C-162.651 245.5 -162.875 245.724 -162.875 246H-167.86C-167.86 245.724 -168.084 245.5 -168.36 245.5H-174.345C-174.621 245.5 -174.845 245.724 -174.845 246H-179.83C-179.83 245.724 -180.054 245.5 -180.33 245.5H-186.315C-186.591 245.5 -186.815 245.724 -186.815 246H-191.801C-191.801 245.724 -192.025 245.5 -192.301 245.5H-198.285C-198.561 245.5 -198.785 245.724 -198.785 246H-203.771C-203.771 245.724 -203.994 245.5 -204.271 245.5H-210.256C-210.532 245.5 -210.756 245.724 -210.756 246H-215.74C-215.74 245.724 -215.964 245.5 -216.24 245.5H-222.226C-222.502 245.5 -222.726 245.724 -222.726 246H-227.711C-227.711 245.724 -227.935 245.5 -228.211 245.5H-234.196C-234.472 245.5 -234.696 245.724 -234.696 246H-239.681C-239.681 245.724 -239.905 245.5 -240.181 245.5H-246.166C-246.442 245.5 -246.666 245.724 -246.666 246H-251.651C-251.651 245.724 -251.875 245.5 -252.151 245.5H-258.136C-258.412 245.5 -258.636 245.724 -258.636 246H-263.621C-263.621 245.724 -263.845 245.5 -264.121 245.5H-270.106C-270.383 245.5 -270.606 245.724 -270.606 246H-275.592C-275.592 245.724 -275.816 245.5 -276.092 245.5H-282.076C-282.352 245.5 -282.576 245.724 -282.576 246H-287.562C-287.562 245.724 -287.785 245.5 -288.062 245.5H-294.047C-294.323 245.5 -294.547 245.724 -294.547 246H-299.531C-299.531 245.724 -299.755 245.5 -300.031 245.5H-306.017C-306.293 245.5 -306.517 245.724 -306.517 246H-311.502C-311.502 245.724 -311.726 245.5 -312.002 245.5H-317.987C-318.263 245.5 -318.487 245.724 -318.487 246H-323.472C-323.472 245.724 -323.696 245.5 -323.972 245.5H-329.957C-330.233 245.5 -330.457 245.724 -330.457 246H-335.442C-335.442 245.724 -335.666 245.5 -335.942 245.5H-341.927C-342.203 245.5 -342.427 245.724 -342.427 246H-347.412C-347.412 245.724 -347.636 245.5 -347.912 245.5H-353.897C-354.174 245.5 -354.397 245.724 -354.397 246H-359.383C-359.383 245.724 -359.607 245.5 -359.883 245.5H-362.875C-363.644 245.5 -364.394 245.425 -365.12 245.281M-365.12 245.281L-365.217 245.771L-365.218 245.77L-365.12 245.281ZM-365.12 245.281C-365.386 245.229 -365.644 245.398 -365.703 245.661C-366.926 245.366 -368.077 244.885 -369.122 244.247C-368.976 244.019 -369.038 243.715 -369.265 243.563L-369.727 243.237C-370.785 242.451 -371.704 241.487 -372.438 240.39L-372.503 240.312C-372.666 240.15 -372.923 240.118 -373.123 240.246C-373.761 239.201 -374.242 238.05 -374.537 236.827C-374.274 236.768 -374.104 236.512 -374.156 236.245M-374.156 236.245L-374.646 236.342L-374.646 236.341L-374.156 236.245ZM-374.156 236.245C-374.3 235.519 -374.375 234.769 -374.375 234V230.977C-374.375 230.7 -374.599 230.477 -374.875 230.477V225.429C-374.633 225.429 -374.431 225.257 -374.385 225.029L-374.375 224.929V218.881C-374.375 218.605 -374.599 218.381 -374.875 218.381V213.333C-374.633 213.333 -374.432 213.162 -374.385 212.935L-374.375 212.833V206.786C-374.375 206.51 -374.599 206.286 -374.875 206.286V201.238C-374.633 201.238 -374.431 201.067 -374.385 200.839L-374.375 200.738V194.69C-374.375 194.414 -374.599 194.19 -374.875 194.19V189.143C-374.634 189.143 -374.432 188.972 -374.385 188.744L-374.375 188.643V182.596C-374.375 182.32 -374.599 182.096 -374.875 182.096V177.048C-374.633 177.048 -374.431 176.876 -374.385 176.648L-374.375 176.548V170.5C-374.375 170.224 -374.599 170 -374.875 170V164.952C-374.633 164.952 -374.431 164.781 -374.385 164.553L-374.375 164.452V158.405C-374.375 158.129 -374.599 157.905 -374.875 157.905V152.857C-374.633 152.857 -374.431 152.686 -374.385 152.458L-374.375 152.357V146.31C-374.375 146.033 -374.599 145.81 -374.875 145.81V140.762C-374.633 140.762 -374.431 140.59 -374.385 140.362L-374.375 140.262V134.214C-374.375 133.938 -374.599 133.714 -374.875 133.714V128.667C-374.633 128.667 -374.431 128.495 -374.385 128.268L-374.375 128.167V122.119C-374.375 121.843 -374.599 121.619 -374.875 121.619V116.571C-374.633 116.571 -374.431 116.4 -374.385 116.172L-374.375 116.071V110.023C-374.375 109.747 -374.599 109.523 -374.875 109.523V104.477C-374.633 104.477 -374.431 104.305 -374.385 104.077L-374.375 103.977V97.9287C-374.375 97.6526 -374.599 97.4287 -374.875 97.4287V92.3809C-374.633 92.3809 -374.431 92.2095 -374.385 91.9814L-374.375 91.8809V85.833C-374.375 85.557 -374.599 85.333 -374.875 85.333V80.2861C-374.633 80.2861 -374.431 80.1145 -374.385 79.8867L-374.375 79.7861V73.7383C-374.375 73.4621 -374.599 73.2383 -374.875 73.2383V68.1904C-374.633 68.1904 -374.431 68.019 -374.385 67.791L-374.375 67.6904V61.6426C-374.375 61.3666 -374.599 61.1426 -374.875 61.1426V56.0957C-374.633 56.0957 -374.431 55.924 -374.385 55.6963L-374.375 55.5957V49.5479C-374.375 49.2717 -374.599 49.0479 -374.875 49.0479V44C-374.633 44 -374.431 43.8285 -374.385 43.6006L-374.375 43.5V37.4521C-374.375 37.1761 -374.599 36.9521 -374.875 36.9521V31.9043C-374.633 31.9043 -374.431 31.7336 -374.385 31.5059L-374.375 31.4043V25.3574C-374.375 25.0813 -374.599 24.8574 -374.875 24.8574V19.8096C-374.633 19.8096 -374.431 19.6381 -374.385 19.4102L-374.375 19.3096V13.2617C-374.375 12.9857 -374.599 12.7617 -374.875 12.7617V7.71387C-374.633 7.71387 -374.432 7.54313 -374.385 7.31543L-374.375 7.21387V1.16699C-374.375 0.89085 -374.599 0.666992 -374.875 0.666992V-4.38086C-374.633 -4.38086 -374.431 -4.55235 -374.385 -4.78027L-374.375 -4.88086V-10.9287C-374.375 -11.2048 -374.599 -11.4287 -374.875 -11.4287V-16.4766C-374.633 -16.4766 -374.432 -16.6473 -374.385 -16.875L-374.375 -16.9766V-20C-374.375 -20.7687 -374.3 -21.5195 -374.156 -22.2451M-374.156 -22.2451L-374.646 -22.3418L-374.646 -22.3428L-374.156 -22.2451ZM-374.156 -22.2451C-374.104 -22.5117 -374.274 -22.7689 -374.537 -22.8281C-374.242 -24.0513 -373.761 -25.2022 -373.123 -26.2471C-372.923 -26.119 -372.666 -26.1503 -372.503 -26.3115L-372.438 -26.3896C-371.704 -27.487 -370.785 -28.4509 -369.727 -29.2373L-369.265 -29.5635C-369.038 -29.7152 -368.976 -30.0195 -369.122 -30.248C-368.077 -30.8863 -366.926 -31.3665 -365.703 -31.6621C-365.644 -31.3986 -365.387 -31.2286 -365.12 -31.2812M-365.12 -31.2812L-365.218 -31.7705L-365.217 -31.7715L-365.12 -31.2812Z" stroke="#B6CDD9" stroke-linecap="round" stroke-linejoin="round" stroke-dasharray="6 6"/>
<path opacity="0.5" fill-rule="evenodd" clip-rule="evenodd" d="M31.875 69.25H44.375C56.1594 69.25 62.0531 69.25 65.7125 65.5875C69.3719 61.925 69.375 56.0344 69.375 44.25V42.8844C69.375 40.1562 69.375 38.1063 69.2406 36.4375H56.5781C53.15 36.4375 50.1188 36.4375 47.6781 36.1094C45.0312 35.7531 42.3844 34.9375 40.225 32.7781C38.0625 30.6156 37.2469 27.9688 36.8906 25.3219C36.5625 22.8813 36.5625 19.8531 36.5625 16.4219L36.5938 7.56562C36.5938 7.30729 36.6146 7.05312 36.6562 6.80312C35.3781 6.75 33.8625 6.75 31.9688 6.75C20.1219 6.75 14.1969 6.75 10.5375 10.4125C6.875 14.0719 6.875 19.9656 6.875 31.75V44.25C6.875 56.0344 6.875 61.9281 10.5375 65.5875C14.2 69.2469 20.0906 69.25 31.875 69.25Z" fill="#009CDC"/>
<path d="M36.5938 7.5625L36.5625 16.4219C36.5625 19.85 36.5625 22.8781 36.8906 25.3219C37.2469 27.9688 38.0625 30.6156 40.225 32.775C42.3813 34.9344 45.0312 35.7531 47.6781 36.1094C50.1188 36.4375 53.15 36.4375 56.5781 36.4375H69.2406C69.2823 36.9208 69.3115 37.4417 69.3281 38H69.375C69.375 37.1625 69.375 36.7437 69.3438 36.25C69.1064 33.2797 68.0721 30.4285 66.35 27.9969C66.0562 27.5969 65.8562 27.3594 65.4594 26.8813C62.9812 23.9188 59.7188 20.225 56.875 17.6875C54.3438 15.425 50.8719 12.9531 47.8437 10.9344C45.2437 9.19687 43.9438 8.32812 42.1594 7.68437C41.6396 7.50079 41.112 7.34022 40.5781 7.20312C39.3781 6.90625 38.2094 6.80313 36.5625 6.76562L36.5938 7.5625Z" fill="#009CDC"/>
<path d="M27.1877 40.3438C26.5922 40.3438 26.019 40.5704 25.5846 40.9778L19.3346 46.8372C18.8918 47.2648 18.6351 47.8496 18.6199 48.465C18.6047 49.0805 18.8322 49.6772 19.2533 50.1262C19.6745 50.5753 20.2554 50.8406 20.8705 50.8648C21.4856 50.8891 22.0856 50.6704 22.5408 50.2559L24.844 48.0965V58.3121C24.844 58.9338 25.0909 59.5299 25.5304 59.9694C25.97 60.409 26.5661 60.6559 27.1877 60.6559C27.8093 60.6559 28.4055 60.409 28.845 59.9694C29.2845 59.5299 29.5315 58.9338 29.5315 58.3121V48.0997L31.8346 50.2559C32.2898 50.6704 32.8898 50.8891 33.5049 50.8648C34.1201 50.8406 34.701 50.5753 35.1221 50.1262C35.5432 49.6772 35.7708 49.0805 35.7556 48.465C35.7404 47.8496 35.4836 47.2648 35.0408 46.8372L28.7908 40.9778C28.3564 40.5704 27.7832 40.3438 27.1877 40.3438Z" fill="#009CDC"/>
</g>
</g>
<defs>
<filter id="filter0_d_1500_1212" x="-404.875" y="-62" width="886" height="338" filterUnits="userSpaceOnUse" color-interpolation-filters="sRGB">
<feFlood flood-opacity="0" result="BackgroundImageFix"/>
<feColorMatrix in="SourceAlpha" type="matrix" values="0 0 0 0 0 0 0 0 0 0 0 0 0 0 0 0 0 0 127 0" result="hardAlpha"/>
<feOffset dy="8"/>
<feGaussianBlur stdDeviation="5"/>
<feComposite in2="hardAlpha" operator="out"/>
<feColorMatrix type="matrix" values="0 0 0 0 0.443137 0 0 0 0 0.443137 0 0 0 0 0.682353 0 0 0 0.05 0"/>
<feBlend mode="normal" in2="BackgroundImageFix" result="effect1_dropShadow_1500_1212"/>
<feBlend mode="normal" in="SourceGraphic" in2="effect1_dropShadow_1500_1212" result="shape"/>
</filter>
<linearGradient id="paint0_linear_1500_1212" x1="-761" y1="-216" x2="679" y2="808" gradientUnits="userSpaceOnUse">
<stop offset="0.0585242" stop-color="#F2F7F9"/>
<stop offset="0.505" stop-color="#D8F0FA"/>
<stop offset="0.935744" stop-color="#F2F7F9"/>
</linearGradient>
<clipPath id="clip0_1500_1212">
<path d="M-761 -204C-761 -210.627 -755.627 -216 -749 -216H667C673.627 -216 679 -210.627 679 -204V796C679 802.627 673.627 808 667 808H-749C-755.627 808 -761 802.627 -761 796V-204Z" fill="white"/>
</clipPath>
</defs>
</svg>
