<svg width="41" height="40" viewBox="0 0 41 40" fill="none" xmlns="http://www.w3.org/2000/svg">
<path opacity="0.5" fill-rule="evenodd" clip-rule="evenodd" d="M16.7298 36.6673H23.3965C29.6815 36.6673 32.8248 36.6673 34.7765 34.714C36.7281 32.7606 36.7298 29.619 36.7298 23.334V22.6056C36.7298 21.1507 36.7298 20.0573 36.6581 19.1673H29.9048C28.0765 19.1673 26.4598 19.1673 25.1582 18.9923C23.7465 18.8023 22.3348 18.3673 21.1832 17.2157C20.0298 16.0623 19.5948 14.6507 19.4048 13.239C19.2298 11.9373 19.2298 10.3223 19.2298 8.49232L19.2465 3.76898C19.2465 3.63121 19.2576 3.49565 19.2798 3.36232C18.5982 3.33398 17.7898 3.33398 16.7798 3.33398C10.4615 3.33398 7.30148 3.33398 5.34982 5.28732C3.39648 7.23898 3.39648 10.3823 3.39648 16.6673V23.334C3.39648 29.619 3.39648 32.7623 5.34982 34.714C7.30315 36.6656 10.4448 36.6673 16.7298 36.6673Z" fill="#009CDC"/>
<path d="M19.2452 3.7668L19.2285 8.4918C19.2285 10.3201 19.2285 11.9351 19.4035 13.2385C19.5935 14.6501 20.0285 16.0618 21.1818 17.2135C22.3318 18.3651 23.7452 18.8018 25.1568 18.9918C26.4585 19.1668 28.0752 19.1668 29.9035 19.1668H36.6569C36.6791 19.4246 36.6946 19.7024 36.7035 20.0001H36.7285C36.7285 19.5535 36.7285 19.3301 36.7118 19.0668C36.5853 17.4827 36.0337 15.962 35.1152 14.6651C34.9585 14.4518 34.8518 14.3251 34.6402 14.0701C33.3185 12.4901 31.5785 10.5201 30.0618 9.1668C28.7118 7.96013 26.8602 6.6418 25.2452 5.56513C23.8585 4.63846 23.1652 4.17513 22.2135 3.8318C21.9363 3.73389 21.6549 3.64825 21.3702 3.57513C20.7302 3.4168 20.1068 3.3618 19.2285 3.3418L19.2452 3.7668Z" fill="#009CDC"/>
</svg>
