<svg width="17" height="17" viewBox="0 0 17 17" fill="none" xmlns="http://www.w3.org/2000/svg">
<path d="M10.7917 15.6673H5.45833C3.025 15.6673 1.625 14.2673 1.625 11.834V5.16732C1.625 2.73398 3.025 1.33398 5.45833 1.33398H10.7917C13.225 1.33398 14.625 2.73398 14.625 5.16732V11.834C14.625 14.2673 13.225 15.6673 10.7917 15.6673ZM5.45833 2.33398C3.55167 2.33398 2.625 3.26065 2.625 5.16732V11.834C2.625 13.7407 3.55167 14.6673 5.45833 14.6673H10.7917C12.6983 14.6673 13.625 13.7407 13.625 11.834V5.16732C13.625 3.26065 12.6983 2.33398 10.7917 2.33398H5.45833Z" fill="#009CDC"/>
<path d="M12.4577 6.66667H11.1243C10.111 6.66667 9.29102 5.84667 9.29102 4.83333V3.5C9.29102 3.22667 9.51768 3 9.79102 3C10.0643 3 10.291 3.22667 10.291 3.5V4.83333C10.291 5.29333 10.6643 5.66667 11.1243 5.66667H12.4577C12.731 5.66667 12.9577 5.89333 12.9577 6.16667C12.9577 6.44 12.731 6.66667 12.4577 6.66667Z" fill="#009CDC"/>
<path d="M8.12565 9.66602H5.45898C5.18565 9.66602 4.95898 9.43935 4.95898 9.16602C4.95898 8.89268 5.18565 8.66602 5.45898 8.66602H8.12565C8.39898 8.66602 8.62565 8.89268 8.62565 9.16602C8.62565 9.43935 8.39898 9.66602 8.12565 9.66602Z" fill="#009CDC"/>
<path d="M10.7923 12.334H5.45898C5.18565 12.334 4.95898 12.1073 4.95898 11.834C4.95898 11.5607 5.18565 11.334 5.45898 11.334H10.7923C11.0657 11.334 11.2923 11.5607 11.2923 11.834C11.2923 12.1073 11.0657 12.334 10.7923 12.334Z" fill="#009CDC"/>
</svg>
