<svg width="16" height="16" viewBox="0 0 16 16" fill="none" xmlns="http://www.w3.org/2000/svg">
<path d="M6 11.833C5.93333 11.833 5.87333 11.8197 5.80667 11.793C5.62 11.7197 5.5 11.533 5.5 11.333V7.33301C5.5 7.05967 5.72667 6.83301 6 6.83301C6.27333 6.83301 6.5 7.05967 6.5 7.33301V10.1263L6.98 9.64634C7.17333 9.45301 7.49333 9.45301 7.68667 9.64634C7.88 9.83967 7.88 10.1597 7.68667 10.353L6.35333 11.6863C6.26 11.7797 6.12667 11.833 6 11.833Z" fill="#009CDC"/>
<path d="M5.99964 11.8336C5.87297 11.8336 5.7463 11.787 5.6463 11.687L4.31297 10.3536C4.11964 10.1603 4.11964 9.84029 4.31297 9.64695C4.5063 9.45362 4.8263 9.45362 5.01964 9.64695L6.35297 10.9803C6.5463 11.1736 6.5463 11.4936 6.35297 11.687C6.25297 11.787 6.1263 11.8336 5.99964 11.8336Z" fill="#009CDC"/>
<path d="M10.0007 15.1663H6.00065C2.38065 15.1663 0.833984 13.6197 0.833984 9.99967V5.99967C0.833984 2.37967 2.38065 0.833008 6.00065 0.833008H9.33398C9.60732 0.833008 9.83398 1.05967 9.83398 1.33301C9.83398 1.60634 9.60732 1.83301 9.33398 1.83301H6.00065C2.92732 1.83301 1.83398 2.92634 1.83398 5.99967V9.99967C1.83398 13.073 2.92732 14.1663 6.00065 14.1663H10.0007C13.074 14.1663 14.1673 13.073 14.1673 9.99967V6.66634C14.1673 6.39301 14.394 6.16634 14.6673 6.16634C14.9407 6.16634 15.1673 6.39301 15.1673 6.66634V9.99967C15.1673 13.6197 13.6207 15.1663 10.0007 15.1663Z" fill="#009CDC"/>
<path d="M14.6673 7.16633H12.0007C9.72065 7.16633 8.83398 6.27967 8.83398 3.99967V1.333C8.83398 1.133 8.95398 0.946334 9.14065 0.873C9.32732 0.793 9.54065 0.839667 9.68732 0.979667L15.0207 6.313C15.1607 6.453 15.2073 6.673 15.1273 6.85967C15.0473 7.04633 14.8673 7.16633 14.6673 7.16633ZM9.83398 2.53967V3.99967C9.83398 5.71967 10.2807 6.16633 12.0007 6.16633H13.4607L9.83398 2.53967Z" fill="#009CDC"/>
</svg>
