<svg width="17" height="16" viewBox="0 0 17 16" fill="none" xmlns="http://www.w3.org/2000/svg">
<path d="M9.76315 14.9473C9.54315 14.9473 9.33648 14.8007 9.27648 14.574C9.20315 14.3073 9.36315 14.034 9.63648 13.9607C12.3432 13.2473 14.2298 10.794 14.2298 7.99398C14.2298 4.59398 11.4632 1.82732 8.06315 1.82732C5.17648 1.82732 3.28315 3.51398 2.39648 4.53398H4.35648C4.62982 4.53398 4.85648 4.76065 4.85648 5.03398C4.85648 5.30732 4.63648 5.54065 4.35648 5.54065H1.40315C1.36982 5.54065 1.30982 5.53398 1.26315 5.52065C1.20315 5.50065 1.14982 5.47398 1.10315 5.44065C1.04315 5.40065 0.996484 5.34732 0.963151 5.28732C0.929818 5.22732 0.903151 5.15398 0.896484 5.08065C0.896484 5.06065 0.896484 5.04732 0.896484 5.02732V2.00065C0.896484 1.72732 1.12315 1.50065 1.39648 1.50065C1.66982 1.50065 1.89648 1.72732 1.89648 2.00065V3.59398C2.98315 2.42732 5.02982 0.833984 8.06315 0.833984C12.0165 0.833984 15.2298 4.04732 15.2298 8.00065C15.2298 11.254 13.0365 14.1073 9.88982 14.934C9.84982 14.9407 9.80315 14.9473 9.76315 14.9473Z" fill="#009CDC"/>
<path d="M7.58982 15.1533C7.57648 15.1533 7.56315 15.1467 7.55648 15.1467C6.83648 15.1 6.12982 14.94 5.46315 14.68C5.26982 14.6067 5.13648 14.4133 5.14315 14.2067C5.14315 14.1467 5.15648 14.0867 5.17648 14.0333C5.27648 13.78 5.57648 13.6533 5.82315 13.7467C6.40315 13.9733 7.00982 14.1067 7.62315 14.1533C7.88315 14.1667 8.08982 14.3933 8.08982 14.66L8.08315 14.6867C8.06982 14.9467 7.84982 15.1533 7.58982 15.1533ZM3.91648 13.72C3.80315 13.72 3.69648 13.68 3.60315 13.6133C3.04315 13.16 2.54982 12.6333 2.14982 12.0467C2.08982 11.96 2.05648 11.8667 2.05648 11.7667C2.05648 11.6 2.13648 11.4467 2.27648 11.3533C2.49648 11.2 2.81648 11.26 2.96982 11.4733C2.96982 11.48 2.96982 11.48 2.96982 11.48C2.97648 11.4867 2.98315 11.5 2.98982 11.5067C3.33648 12.0067 3.75648 12.4533 4.22982 12.8267C4.34315 12.92 4.41648 13.06 4.41648 13.2133C4.41648 13.3267 4.38315 13.44 4.30982 13.5333C4.20982 13.6533 4.06982 13.72 3.91648 13.72ZM1.68982 10.4667C1.46982 10.4667 1.27648 10.3267 1.21648 10.12C1.00315 9.43333 0.896484 8.72 0.896484 8V7.99333C0.903151 7.72 1.12315 7.5 1.39648 7.5C1.66982 7.5 1.89648 7.72667 1.89648 8C1.89648 8.62667 1.98982 9.24 2.16982 9.82C2.18315 9.87333 2.18982 9.92 2.18982 9.97333C2.18982 10.1867 2.04982 10.38 1.83648 10.4467C1.78982 10.46 1.74315 10.4667 1.68982 10.4667Z" fill="#009CDC"/>
</svg>
