<svg width="17" height="16" viewBox="0 0 17 16" fill="none" xmlns="http://www.w3.org/2000/svg">
<path d="M8.04167 15.1673C4.095 15.1673 0.875 11.954 0.875 8.00065C0.875 4.04732 4.095 0.833984 8.04167 0.833984C11.9883 0.833984 15.2083 4.04732 15.2083 8.00065C15.2083 11.954 11.995 15.1673 8.04167 15.1673ZM8.04167 1.83398C4.64167 1.83398 1.875 4.60065 1.875 8.00065C1.875 11.4007 4.64167 14.1673 8.04167 14.1673C11.4417 14.1673 14.2083 11.4007 14.2083 8.00065C14.2083 4.60065 11.4417 1.83398 8.04167 1.83398Z" fill="#009CDC"/>
<path d="M7.10201 11.3276C6.80867 11.3276 6.52867 11.2543 6.28201 11.1143C5.70867 10.781 5.38867 10.1276 5.38867 9.27431V7.04097C5.38867 6.18764 5.70201 5.53431 6.27534 5.20097C6.84867 4.86764 7.57534 4.92097 8.31534 5.34764L10.2487 6.46097C10.9887 6.88764 11.3953 7.48764 11.3953 8.1543C11.3953 8.8143 10.9887 9.42097 10.2487 9.84764L8.31534 10.961C7.90201 11.2076 7.48201 11.3276 7.10201 11.3276ZM7.10201 5.98097C6.98201 5.98097 6.86867 6.00764 6.78201 6.06097C6.52867 6.20764 6.38867 6.56097 6.38867 7.04097V9.27431C6.38867 9.74764 6.52867 10.1076 6.78201 10.2476C7.02867 10.3943 7.40867 10.3343 7.82201 10.101L9.75534 8.98764C10.1687 8.74764 10.402 8.44764 10.402 8.16097C10.402 7.87431 10.162 7.57431 9.75534 7.33431L7.82201 6.22097C7.55534 6.06097 7.30867 5.98097 7.10201 5.98097Z" fill="#009CDC"/>
</svg>
