<svg width="17" height="16" viewBox="0 0 17 16" fill="none" xmlns="http://www.w3.org/2000/svg">
<path d="M14.0629 4.48633C14.0496 4.48633 14.0296 4.48633 14.0096 4.48633C10.4829 4.13299 6.96293 3.99966 3.47627 4.35299L2.11627 4.48633C1.83627 4.51299 1.5896 4.31299 1.56293 4.03299C1.53627 3.75299 1.73627 3.51299 2.0096 3.48633L3.3696 3.35299C6.91627 2.99299 10.5096 3.13299 14.1096 3.48633C14.3829 3.51299 14.5829 3.75966 14.5563 4.03299C14.5363 4.29299 14.3163 4.48633 14.0629 4.48633Z" fill="#EC221F"/>
<path d="M5.72901 3.81398C5.70234 3.81398 5.67568 3.81398 5.64234 3.80732C5.37568 3.76065 5.18901 3.50065 5.23568 3.23398L5.38234 2.36065C5.48901 1.72065 5.63568 0.833984 7.18901 0.833984H8.93568C10.4957 0.833984 10.6423 1.75398 10.7423 2.36732L10.889 3.23398C10.9357 3.50732 10.749 3.76732 10.4823 3.80732C10.209 3.85398 9.94901 3.66732 9.90901 3.40065L9.76234 2.53398C9.66901 1.95398 9.64901 1.84065 8.94234 1.84065H7.19568C6.48901 1.84065 6.47568 1.93398 6.37568 2.52732L6.22234 3.39398C6.18234 3.64065 5.96901 3.81398 5.72901 3.81398Z" fill="#EC221F"/>
<path d="M10.2021 15.1657H5.92211C3.59544 15.1657 3.50211 13.8791 3.42877 12.8391L2.99544 6.12574C2.97544 5.85241 3.18877 5.61241 3.46211 5.59241C3.74211 5.57907 3.97544 5.78574 3.99544 6.05907L4.42877 12.7724C4.50211 13.7857 4.52877 14.1657 5.92211 14.1657H10.2021C11.6021 14.1657 11.6288 13.7857 11.6954 12.7724L12.1288 6.05907C12.1488 5.78574 12.3888 5.57907 12.6621 5.59241C12.9354 5.61241 13.1488 5.84574 13.1288 6.12574L12.6954 12.8391C12.6221 13.8791 12.5288 15.1657 10.2021 15.1657Z" fill="#EC221F"/>
<path d="M9.16922 11.5H6.94922C6.67589 11.5 6.44922 11.2733 6.44922 11C6.44922 10.7267 6.67589 10.5 6.94922 10.5H9.16922C9.44255 10.5 9.66922 10.7267 9.66922 11C9.66922 11.2733 9.44255 11.5 9.16922 11.5Z" fill="#EC221F"/>
<path d="M9.72982 8.83398H6.39648C6.12315 8.83398 5.89648 8.60732 5.89648 8.33398C5.89648 8.06065 6.12315 7.83398 6.39648 7.83398H9.72982C10.0032 7.83398 10.2298 8.06065 10.2298 8.33398C10.2298 8.60732 10.0032 8.83398 9.72982 8.83398Z" fill="#EC221F"/>
</svg>
