<svg width="14" height="16" viewBox="0 0 14 16" fill="none" xmlns="http://www.w3.org/2000/svg">
<path fill-rule="evenodd" clip-rule="evenodd" d="M9.88762 1.29644L9.88831 1.8408C11.8166 1.99758 13.0903 3.36066 13.0924 5.45102L13.1 11.5697C13.1028 13.8487 11.7226 15.251 9.51026 15.2546L4.10632 15.2619C1.90784 15.2648 0.510372 13.8291 0.507607 11.5435L0.500005 5.49674C0.49724 3.3926 1.72607 2.03314 3.65432 1.84951L3.65363 1.30515C3.65294 0.985787 3.88101 0.745541 4.18511 0.745541C4.4892 0.744815 4.71728 0.984335 4.71797 1.30369L4.71866 1.81177L8.82397 1.80596L8.82328 1.29789C8.82259 0.978528 9.05066 0.739009 9.35476 0.738283C9.65194 0.737557 9.88693 0.977077 9.88762 1.29644ZM1.56509 5.72104L12.0288 5.70652V5.45249C11.9991 3.89198 11.2444 3.07326 9.88975 2.95132L9.89044 3.5102C9.89044 3.8223 9.65615 4.0698 9.35896 4.0698C9.05486 4.07053 8.8261 3.82375 8.8261 3.51165L8.82541 2.92374L4.7201 2.92954L4.72079 3.51673C4.72079 3.82956 4.49341 4.07634 4.18931 4.07634C3.88521 4.07706 3.65645 3.83101 3.65645 3.51818L3.65576 2.9593C2.30806 3.09938 1.56233 3.92101 1.5644 5.49531L1.56509 5.72104ZM9.06799 9.01982V9.02781C9.0749 9.36168 9.33753 9.615 9.65614 9.60774C9.96715 9.59975 10.2153 9.32322 10.2084 8.98934C10.1938 8.66998 9.94434 8.40941 9.63402 8.41014C9.3161 8.4174 9.0673 8.68595 9.06799 9.01982ZM9.63887 12.2788C9.32095 12.2715 9.06454 11.9964 9.06385 11.6625C9.05694 11.3287 9.31197 11.0521 9.62989 11.0441H9.6368C9.96163 11.0441 10.2249 11.3192 10.2249 11.6604C10.2256 12.0015 9.96301 12.278 9.63887 12.2788ZM6.22048 9.03152C6.2343 9.3654 6.49762 9.62597 6.81554 9.61145C7.12655 9.59621 7.37466 9.3204 7.36084 8.98652C7.35324 8.6599 7.09752 8.40587 6.78651 8.40659C6.46859 8.42111 6.21979 8.69764 6.22048 9.03152ZM6.81827 12.2462C6.50035 12.2607 6.23772 12.0001 6.22321 11.6662C6.22321 11.3324 6.47133 11.0565 6.78925 11.0413C7.10025 11.0406 7.35666 11.2946 7.36357 11.6205C7.37809 11.9551 7.12928 12.2309 6.81827 12.2462ZM3.37297 9.05687C3.38679 9.39075 3.65011 9.65204 3.96803 9.6368C4.27904 9.62229 4.52715 9.34575 4.51264 9.01187C4.50573 8.68526 4.25001 8.43122 3.93831 8.43194C3.62039 8.44646 3.37228 8.723 3.37297 9.05687ZM3.97098 12.2497C3.65307 12.265 3.39044 12.0037 3.37592 11.6698C3.37523 11.3359 3.62404 11.0594 3.94196 11.0449C4.25297 11.0442 4.50937 11.2982 4.51629 11.6248C4.5308 11.9587 4.28268 12.2352 3.97098 12.2497Z" fill="#81A8BD"/>
</svg>
