<svg width="16" height="16" viewBox="0 0 16 16" fill="none" xmlns="http://www.w3.org/2000/svg">
<path d="M8 1.3335C4.32667 1.3335 1.33334 4.32683 1.33334 8.00016C1.33334 11.6735 4.32667 14.6668 8 14.6668C11.6733 14.6668 14.6667 11.6735 14.6667 8.00016C14.6667 4.32683 11.6733 1.3335 8 1.3335ZM10.24 9.5335C10.4333 9.72683 10.4333 10.0468 10.24 10.2402C10.14 10.3402 10.0133 10.3868 9.88667 10.3868C9.76 10.3868 9.63334 10.3402 9.53334 10.2402L8 8.70683L6.46667 10.2402C6.36667 10.3402 6.24 10.3868 6.11334 10.3868C5.98667 10.3868 5.86 10.3402 5.76 10.2402C5.56667 10.0468 5.56667 9.72683 5.76 9.5335L7.29334 8.00016L5.76 6.46683C5.56667 6.2735 5.56667 5.9535 5.76 5.76016C5.95334 5.56683 6.27334 5.56683 6.46667 5.76016L8 7.2935L9.53334 5.76016C9.72667 5.56683 10.0467 5.56683 10.24 5.76016C10.4333 5.9535 10.4333 6.2735 10.24 6.46683L8.70667 8.00016L10.24 9.5335Z" fill="#818B94"/>
</svg>
