<svg width="16" height="16" viewBox="0 0 16 16" fill="none" xmlns="http://www.w3.org/2000/svg">
<path d="M8 1.33301C4.32667 1.33301 1.33334 4.32634 1.33334 7.99967C1.33334 11.673 4.32667 14.6663 8 14.6663C11.6733 14.6663 14.6667 11.673 14.6667 7.99967C14.6667 4.32634 11.6733 1.33301 8 1.33301ZM10.24 9.53301C10.4333 9.72634 10.4333 10.0463 10.24 10.2397C10.14 10.3397 10.0133 10.3863 9.88667 10.3863C9.76 10.3863 9.63334 10.3397 9.53334 10.2397L8 8.70634L6.46667 10.2397C6.36667 10.3397 6.24 10.3863 6.11334 10.3863C5.98667 10.3863 5.86 10.3397 5.76 10.2397C5.56667 10.0463 5.56667 9.72634 5.76 9.53301L7.29334 7.99967L5.76 6.46634C5.56667 6.27301 5.56667 5.95301 5.76 5.75968C5.95334 5.56634 6.27334 5.56634 6.46667 5.75968L8 7.29301L9.53334 5.75968C9.72667 5.56634 10.0467 5.56634 10.24 5.75968C10.4333 5.95301 10.4333 6.27301 10.24 6.46634L8.70667 7.99967L10.24 9.53301Z" fill="#818B94"/>
</svg>
