<svg width="17" height="17" viewBox="0 0 17 17" fill="none" xmlns="http://www.w3.org/2000/svg">
<path d="M12.819 15.6673H4.43228C2.16562 15.6673 2.04562 14.4207 1.94562 13.414L1.67895 10.074C1.61895 9.42732 1.80562 8.78065 2.21895 8.26065C2.71228 7.66065 3.41228 7.33398 4.16562 7.33398H13.0856C13.8256 7.33398 14.5256 7.66065 14.999 8.22732L15.1123 8.38065C15.4723 8.87398 15.6323 9.47398 15.5723 10.0807L15.3056 13.4073C15.2056 14.4207 15.0856 15.6673 12.819 15.6673ZM4.16562 8.33398C3.71895 8.33398 3.29228 8.53398 3.01228 8.88065L2.96562 8.92732C2.75228 9.20065 2.63895 9.58732 2.67895 9.98732L2.94562 13.3273C3.03895 14.3007 3.07895 14.6673 4.43228 14.6673H12.819C14.179 14.6673 14.2123 14.3007 14.3056 13.3207L14.5723 9.98065C14.6123 9.58732 14.499 9.19398 14.239 8.88732L14.1723 8.80732C13.8723 8.49398 13.4923 8.33398 13.079 8.33398H4.16562Z" fill="white"/>
<path d="M14.2923 8.64685C14.019 8.64685 13.7923 8.42018 13.7923 8.14685V6.95352C13.7923 4.96685 13.4457 4.62018 11.459 4.62018H9.75898C9.00565 4.62018 8.74565 4.35352 8.45898 3.97352L7.59898 2.83352C7.30565 2.44685 7.23898 2.35352 6.63898 2.35352H5.79232C3.80565 2.35352 3.45898 2.70018 3.45898 4.68685V8.12018C3.45898 8.39352 3.23232 8.62018 2.95898 8.62018C2.68565 8.62018 2.45898 8.39352 2.45898 8.12018V4.68685C2.45898 2.13352 3.23898 1.35352 5.79232 1.35352H6.64565C7.67232 1.35352 7.99232 1.68685 8.40565 2.23352L9.25898 3.36685C9.43898 3.60685 9.45232 3.62018 9.76565 3.62018H11.4657C14.019 3.62018 14.799 4.40018 14.799 6.95352V8.14685C14.7923 8.42018 14.5657 8.64685 14.2923 8.64685Z" fill="white"/>
<path d="M10.3388 12.334H6.91211C6.63878 12.334 6.41211 12.1073 6.41211 11.834C6.41211 11.5607 6.63878 11.334 6.91211 11.334H10.3388C10.6121 11.334 10.8388 11.5607 10.8388 11.834C10.8388 12.1073 10.6188 12.334 10.3388 12.334Z" fill="white"/>
</svg>
