<svg width="16" height="17" viewBox="0 0 16 17" fill="none" xmlns="http://www.w3.org/2000/svg">
<path d="M9.99967 15.6663H5.99967C2.37967 15.6663 0.833008 14.1197 0.833008 10.4997V6.49967C0.833008 2.87967 2.37967 1.33301 5.99967 1.33301H7.33301C7.60634 1.33301 7.83301 1.55967 7.83301 1.83301C7.83301 2.10634 7.60634 2.33301 7.33301 2.33301H5.99967C2.92634 2.33301 1.83301 3.42634 1.83301 6.49967V10.4997C1.83301 13.573 2.92634 14.6663 5.99967 14.6663H9.99967C13.073 14.6663 14.1663 13.573 14.1663 10.4997V9.16634C14.1663 8.89301 14.393 8.66634 14.6663 8.66634C14.9397 8.66634 15.1663 8.89301 15.1663 9.16634V10.4997C15.1663 14.1197 13.6197 15.6663 9.99967 15.6663Z" fill="#009CDC"/>
<path d="M5.66688 12.2934C5.26022 12.2934 4.88688 12.1467 4.61355 11.88C4.28688 11.5534 4.14688 11.08 4.22022 10.58L4.50688 8.57337C4.56022 8.18671 4.81355 7.68671 5.08688 7.41337L10.3402 2.16004C11.6669 0.833372 13.0135 0.833372 14.3402 2.16004C15.0669 2.88671 15.3935 3.62671 15.3269 4.36671C15.2669 4.96671 14.9469 5.55337 14.3402 6.15337L9.08688 11.4067C8.81355 11.68 8.31355 11.9334 7.92688 11.9867L5.92022 12.2734C5.83355 12.2934 5.74688 12.2934 5.66688 12.2934ZM11.0469 2.86671L5.79355 8.12004C5.66688 8.24671 5.52022 8.54004 5.49355 8.71337L5.20688 10.72C5.18022 10.9134 5.22022 11.0734 5.32022 11.1734C5.42022 11.2734 5.58022 11.3134 5.77355 11.2867L7.78022 11C7.95355 10.9734 8.25355 10.8267 8.37355 10.7L13.6269 5.44671C14.0602 5.01337 14.2869 4.62671 14.3202 4.26671C14.3602 3.83337 14.1335 3.37337 13.6269 2.86004C12.5602 1.79337 11.8269 2.09337 11.0469 2.86671Z" fill="#009CDC"/>
<path d="M13.233 7.05319C13.1864 7.05319 13.1397 7.04652 13.0997 7.03319C11.3464 6.53986 9.95305 5.14652 9.45971 3.39319C9.38638 3.12652 9.53971 2.85319 9.80638 2.77319C10.073 2.69986 10.3464 2.85319 10.4197 3.11986C10.8197 4.53986 11.9464 5.66652 13.3664 6.06652C13.633 6.13986 13.7864 6.41985 13.713 6.68652C13.653 6.91319 13.453 7.05319 13.233 7.05319Z" fill="#009CDC"/>
</svg>
