<svg width="20" height="20" viewBox="0 0 20 20" fill="none" xmlns="http://www.w3.org/2000/svg">
<path d="M9.99935 18.9584C5.05768 18.9584 1.04102 14.9417 1.04102 10.0001C1.04102 5.05841 5.05768 1.04175 9.99935 1.04175C14.941 1.04175 18.9577 5.05841 18.9577 10.0001C18.9577 14.9417 14.941 18.9584 9.99935 18.9584ZM9.99935 2.29175C5.74935 2.29175 2.29102 5.75008 2.29102 10.0001C2.29102 14.2501 5.74935 17.7084 9.99935 17.7084C14.2493 17.7084 17.7077 14.2501 17.7077 10.0001C17.7077 5.75008 14.2493 2.29175 9.99935 2.29175Z" fill="#253746"/>
<path d="M8.81719 12.9834C8.65052 12.9834 8.49219 12.9167 8.37552 12.8001L6.01719 10.4417C5.77552 10.2001 5.77552 9.80008 6.01719 9.55841C6.25885 9.31675 6.65885 9.31675 6.90052 9.55841L8.81719 11.4751L13.1005 7.19175C13.3422 6.95008 13.7422 6.95008 13.9839 7.19175C14.2255 7.43341 14.2255 7.83341 13.9839 8.07508L9.25885 12.8001C9.14219 12.9167 8.98385 12.9834 8.81719 12.9834Z" fill="#253746"/>
</svg>
