<svg width="16" height="16" viewBox="0 0 16 16" fill="none" xmlns="http://www.w3.org/2000/svg">
<path d="M7.29327 15.1C6.97327 15.1 6.65993 15.02 6.3666 14.86C5.77993 14.5334 5.4266 13.94 5.4266 13.2734V9.74002C5.4266 9.40669 5.2066 8.90669 4.99993 8.65336L2.5066 6.01336C2.0866 5.59336 1.7666 4.87336 1.7666 4.33336V2.80002C1.7666 1.73336 2.57327 0.900024 3.59993 0.900024H12.3999C13.4133 0.900024 14.2333 1.72002 14.2333 2.73336V4.20002C14.2333 4.90002 13.8133 5.69336 13.4199 6.08669L10.5333 8.64002C10.2533 8.87336 10.0333 9.38669 10.0333 9.80002V12.6667C10.0333 13.26 9.65993 13.9467 9.19327 14.2267L8.27327 14.82C7.97327 15.0067 7.63327 15.1 7.29327 15.1ZM3.59993 1.90002C3.13327 1.90002 2.7666 2.29336 2.7666 2.80002V4.33336C2.7666 4.58002 2.9666 5.06002 3.21993 5.31336L5.75994 7.98669C6.09994 8.40669 6.43327 9.10669 6.43327 9.73336V13.2667C6.43327 13.7 6.73327 13.9134 6.85993 13.98C7.13994 14.1334 7.47993 14.1334 7.73993 13.9734L8.6666 13.38C8.85327 13.2667 9.03994 12.9067 9.03994 12.6667V9.80002C9.03994 9.08669 9.3866 8.30002 9.8866 7.88002L12.7399 5.35336C12.9666 5.12669 13.2399 4.58669 13.2399 4.19336V2.73336C13.2399 2.27336 12.8666 1.90002 12.4066 1.90002H3.59993Z" fill="#009CDC"/>
<path d="M3.99995 7.16664C3.90661 7.16664 3.81995 7.13997 3.73328 7.09331C3.49995 6.94664 3.42661 6.63331 3.57328 6.39997L6.85995 1.13331C7.00661 0.899972 7.31328 0.826639 7.54661 0.973306C7.77995 1.11997 7.85328 1.42664 7.70661 1.65997L4.41995 6.92664C4.32661 7.07997 4.16661 7.16664 3.99995 7.16664Z" fill="#009CDC"/>
</svg>
