<svg width="14" height="16" viewBox="0 0 14 16" fill="none" xmlns="http://www.w3.org/2000/svg">
<path fill-rule="evenodd" clip-rule="evenodd" d="M0.325195 6.73832C0.325195 3.28842 3.20811 0.5 6.69528 0.5C10.1923 0.5 13.0752 3.28842 13.0752 6.73832C13.0752 8.47677 12.443 10.0907 11.4023 11.4587C10.2543 12.9676 8.83931 14.2823 7.2466 15.3143C6.88208 15.5528 6.5531 15.5708 6.15303 15.3143C4.55125 14.2823 3.13626 12.9676 1.99807 11.4587C0.956683 10.0907 0.325195 8.47677 0.325195 6.73832ZM4.59587 6.93256C4.59587 8.08828 5.53894 8.99725 6.69528 8.99725C7.85238 8.99725 8.80452 8.08828 8.80452 6.93256C8.80452 5.78585 7.85238 4.83262 6.69528 4.83262C5.53894 4.83262 4.59587 5.78585 4.59587 6.93256Z" fill="#81A8BD"/>
</svg>
