<svg width="16" height="16" viewBox="0 0 16 16" fill="none" xmlns="http://www.w3.org/2000/svg">
<path fill-rule="evenodd" clip-rule="evenodd" d="M11.7193 0.738281C12.7623 0.738281 13.7657 1.16592 14.5038 1.93325C15.2427 2.69897 15.6557 3.73176 15.6557 4.81296V11.1872C15.6557 13.4384 13.8901 15.2619 11.7193 15.2619H4.03565C1.86488 15.2619 0.100098 13.4384 0.100098 11.1872V4.81296C0.100098 2.5618 1.8571 0.738281 4.03565 0.738281H11.7193ZM12.9568 6.01527L13.019 5.95072C13.2049 5.71672 13.2049 5.37784 13.0104 5.14385C12.9023 5.02363 12.7538 4.9502 12.599 4.93406C12.4357 4.92519 12.2801 4.98248 12.1627 5.09544L8.65565 8.00016C8.20454 8.38826 7.55821 8.38826 7.1001 8.00016L3.6001 5.09544C3.35821 4.90986 3.02376 4.93406 2.82232 5.15192C2.61232 5.36977 2.58899 5.71672 2.7671 5.95879L2.86899 6.06368L6.40788 8.92806C6.84343 9.28308 7.37154 9.47673 7.92454 9.47673C8.47599 9.47673 9.01343 9.28308 9.44821 8.92806L12.9568 6.01527Z" fill="#81A8BD"/>
</svg>
