<svg width="16" height="16" viewBox="0 0 16 16" fill="none" xmlns="http://www.w3.org/2000/svg">
<path d="M7.99967 15.1663C4.04634 15.1663 0.833008 11.953 0.833008 7.99967C0.833008 4.04634 4.04634 0.833008 7.99967 0.833008C11.953 0.833008 15.1663 4.04634 15.1663 7.99967C15.1663 11.953 11.953 15.1663 7.99967 15.1663ZM7.99967 1.83301C4.59967 1.83301 1.83301 4.59967 1.83301 7.99967C1.83301 11.3997 4.59967 14.1663 7.99967 14.1663C11.3997 14.1663 14.1663 11.3997 14.1663 7.99967C14.1663 4.59967 11.3997 1.83301 7.99967 1.83301Z" fill="white"/>
<path d="M7.05297 10.3867C6.91964 10.3867 6.79297 10.3334 6.69964 10.2401L4.81297 8.3534C4.61964 8.16007 4.61964 7.84007 4.81297 7.64673C5.0063 7.4534 5.3263 7.4534 5.51964 7.64673L7.05297 9.18007L10.4796 5.7534C10.673 5.56007 10.993 5.56007 11.1863 5.7534C11.3796 5.94673 11.3796 6.26673 11.1863 6.46006L7.4063 10.2401C7.31297 10.3334 7.1863 10.3867 7.05297 10.3867Z" fill="white"/>
</svg>
