<svg width="16" height="16" viewBox="0 0 16 16" fill="none" xmlns="http://www.w3.org/2000/svg">
<path d="M13.0063 3.89967L9.04629 1.61301C8.39962 1.23967 7.59962 1.23967 6.94629 1.61301L2.99296 3.89967C2.34629 4.27301 1.94629 4.96634 1.94629 5.71967V10.2797C1.94629 11.0263 2.34629 11.7197 2.99296 12.0997L6.95296 14.3863C7.59962 14.7597 8.39962 14.7597 9.05296 14.3863L13.013 12.0997C13.6596 11.7263 14.0596 11.033 14.0596 10.2797V5.71967C14.053 4.96634 13.653 4.27967 13.0063 3.89967ZM7.49962 5.16634C7.49962 4.89301 7.72629 4.66634 7.99962 4.66634C8.27296 4.66634 8.49962 4.89301 8.49962 5.16634V8.66634C8.49962 8.93967 8.27296 9.16634 7.99962 9.16634C7.72629 9.16634 7.49962 8.93967 7.49962 8.66634V5.16634ZM8.61296 11.0863C8.57962 11.1663 8.53296 11.2397 8.47296 11.3063C8.34629 11.433 8.17962 11.4997 7.99962 11.4997C7.91296 11.4997 7.82629 11.4797 7.74629 11.4463C7.65962 11.413 7.59296 11.3663 7.52629 11.3063C7.46629 11.2397 7.41962 11.1663 7.37962 11.0863C7.34629 11.0063 7.33296 10.9197 7.33296 10.833C7.33296 10.6597 7.39962 10.4863 7.52629 10.3597C7.59296 10.2997 7.65962 10.253 7.74629 10.2197C7.99296 10.113 8.28629 10.173 8.47296 10.3597C8.53296 10.4263 8.57962 10.493 8.61296 10.5797C8.64629 10.6597 8.66629 10.7463 8.66629 10.833C8.66629 10.9197 8.64629 11.0063 8.61296 11.0863Z" fill="#EC221F"/>
</svg>
